<?xml version="1.0" encoding="UTF-8" standalone="no"?>
<!-- Created with Inkscape (http://www.inkscape.org/) -->

<svg
   xmlns:dc="http://purl.org/dc/elements/1.1/"
   xmlns:cc="http://creativecommons.org/ns#"
   xmlns:rdf="http://www.w3.org/1999/02/22-rdf-syntax-ns#"
   xmlns:svg="http://www.w3.org/2000/svg"
   xmlns="http://www.w3.org/2000/svg"
   xmlns:sodipodi="http://sodipodi.sourceforge.net/DTD/sodipodi-0.dtd"
   xmlns:inkscape="http://www.inkscape.org/namespaces/inkscape"
   width="208mm"
   height="80mm"
   viewBox="60 115 100 55"
   version="1.1"
   id="svg116"
   sodipodi:docname="drawing3.svg"
   inkscape:version="0.92.3 (2405546, 2018-03-11)">
  <defs
     id="defs110">
    <style
       id="style118"
       type="text/css">
   <![CDATA[
    .fil0 {fill:#393738;fill-rule:nonzero}
   ]]>
  </style>
    <clipPath
       id="clipPath234"
       clipPathUnits="userSpaceOnUse">
      <path
         inkscape:connector-curvature="0"
         id="path232"
         d="M 0,841.89 H 595.28 V 0 H 0 Z" />
    </clipPath>
  </defs>
  <sodipodi:namedview
     id="base"
     pagecolor="#ffffff"
     bordercolor="#666666"
     borderopacity="1.0"
     inkscape:pageopacity="0.0"
     inkscape:pageshadow="2"
     inkscape:zoom="2.7200965"
     inkscape:cx="413.91808"
     inkscape:cy="582.85858"
     inkscape:document-units="mm"
     inkscape:current-layer="g226"
     showgrid="false"
     inkscape:window-width="1920"
     inkscape:window-height="1137"
     inkscape:window-x="-8"
     inkscape:window-y="-8"
     inkscape:window-maximized="1" />
  <metadata
     id="metadata113">
    <rdf:RDF>
      <cc:Work
         rdf:about="">
        <dc:format>image/svg+xml</dc:format>
        <dc:type
           rdf:resource="http://purl.org/dc/dcmitype/StillImage" />
        <dc:title></dc:title>
      </cc:Work>
    </rdf:RDF>
  </metadata>
  <g
     inkscape:label="Layer 1"
     inkscape:groupmode="layer"
     id="layer1">
    <g
       transform="matrix(0.35277777,0,0,-0.35277777,4.5836905,291.16392)"
       inkscape:label="logo_stil"
       id="g226">
      <g
         id="g228"
         transform="translate(0,0.00107312)">
        <g
           clip-path="url(#clipPath234)"
           id="g230"
           style="fill:#ffffff;fill-opacity:1">
          <g
             transform="translate(274.647,354.4281)"
             id="g236"
             style="fill:#ffffff;fill-opacity:1">
            <path
               inkscape:connector-curvature="0"
               id="path238"
               style="fill:#ffffff;fill-opacity:1;fill-rule:nonzero;stroke:none"
               d="m 0,0 c -0.104,0 -0.417,0.026 -0.631,0.058 -0.164,0.019 -0.249,0.053 -0.3,0.531 -0.073,0.608 -0.073,1.808 -0.073,3.201 v 6.729 c 0.04,0.279 -0.002,0.493 -0.125,0.633 -0.084,0.1 -0.204,0.155 -0.333,0.155 -0.111,0 -0.324,-0.044 -0.512,-0.335 -2.759,-3.541 -4.774,-5.955 -6.856,-8.369 0,4.365 0.002,6.578 0.03,7.024 0.029,0.497 0.13,0.516 0.279,0.542 0.167,0.027 0.242,0.041 0.319,0.04 0.257,0 0.456,0.187 0.456,0.422 0,0.106 -0.042,0.451 -0.575,0.451 -0.327,0 -0.896,-0.02 -1.236,-0.035 -0.126,-0.006 -0.215,-0.008 -0.238,-0.009 -0.02,10e-4 -0.088,0.002 -0.19,0.007 -0.324,0.013 -0.997,0.037 -1.512,0.037 -0.533,0 -0.574,-0.345 -0.574,-0.451 0,-0.235 0.198,-0.421 0.454,-0.422 0.147,0 0.361,-0.017 0.444,-0.036 0.287,-0.061 0.356,-0.118 0.381,-0.548 0.015,-0.229 0.015,-0.452 0.015,-0.897 0,-0.457 0,-1.145 0.015,-2.309 v -6.848 c -0.037,-0.279 0.005,-0.493 0.125,-0.632 0.086,-0.099 0.204,-0.155 0.334,-0.155 0.113,0 0.331,0.046 0.504,0.326 l 1.427,1.835 c 1.889,2.45 3.852,4.774 5.434,6.614 V 3.79 c 0,-1.393 0,-2.593 -0.069,-3.195 C -3.028,0.451 -3.083,0.072 -3.188,0.052 -3.331,0.021 -3.475,0 -3.566,0 -3.861,0 -4.02,-0.218 -4.02,-0.422 c 0,-0.104 0.041,-0.45 0.576,-0.45 0.325,0 0.895,0.021 1.234,0.035 0.126,0.006 0.216,0.009 0.239,0.01 0.018,-0.001 0.08,-0.004 0.17,-0.006 0.338,-0.013 1.04,-0.039 1.681,-0.039 0.56,0 0.576,0.404 0.576,0.45 C 0.456,-0.218 0.296,0 0,0" />
          </g>
          <g
             transform="translate(289.623,354.4623)"
             id="g240"
             style="fill:#ffffff;fill-opacity:1">
            <path
               inkscape:connector-curvature="0"
               id="path242"
               style="fill:#ffffff;fill-opacity:1;fill-rule:nonzero;stroke:none"
               d="M 0,0 C -0.104,0 -0.416,0.025 -0.631,0.057 -0.794,0.077 -0.88,0.111 -0.93,0.589 -1.004,1.197 -1.004,2.396 -1.004,3.79 v 6.729 c 0.04,0.279 -0.002,0.493 -0.125,0.633 -0.084,0.099 -0.204,0.155 -0.333,0.155 -0.111,0 -0.324,-0.045 -0.512,-0.336 -2.759,-3.54 -4.773,-5.955 -6.856,-8.368 0,4.365 0.003,6.578 0.031,7.024 0.029,0.497 0.129,0.516 0.278,0.542 0.167,0.027 0.243,0.041 0.32,0.04 0.256,0 0.456,0.187 0.456,0.422 0,0.106 -0.042,0.451 -0.575,0.451 -0.327,0 -0.897,-0.021 -1.237,-0.035 -0.126,-0.006 -0.215,-0.008 -0.238,-0.01 -0.02,0.002 -0.088,0.003 -0.189,0.008 -0.324,0.013 -0.997,0.037 -1.513,0.037 -0.533,0 -0.574,-0.345 -0.574,-0.451 0,-0.235 0.199,-0.421 0.455,-0.422 0.146,0 0.36,-0.017 0.443,-0.036 0.287,-0.061 0.356,-0.118 0.381,-0.548 0.015,-0.229 0.015,-0.453 0.015,-0.898 0,-0.457 0,-1.144 0.015,-2.308 v -6.848 c -0.037,-0.279 0.005,-0.493 0.125,-0.633 0.087,-0.099 0.205,-0.154 0.335,-0.154 0.112,0 0.33,0.046 0.503,0.326 l 1.427,1.835 c 1.889,2.449 3.852,4.774 5.435,6.614 V 3.79 c 0,-1.394 0,-2.593 -0.07,-3.195 C -3.028,0.451 -3.082,0.072 -3.187,0.051 -3.331,0.02 -3.475,0 -3.565,0 -3.86,0 -4.02,-0.218 -4.02,-0.422 c 0,-0.105 0.041,-0.45 0.576,-0.45 0.326,0 0.895,0.021 1.234,0.035 0.126,0.006 0.216,0.008 0.24,0.009 0.017,-0.001 0.079,-0.003 0.169,-0.005 0.338,-0.014 1.04,-0.039 1.682,-0.039 0.559,0 0.575,0.404 0.575,0.45 C 0.456,-0.218 0.297,0 0,0" />
          </g>
          <g
             transform="translate(200.4541,442.2333)"
             id="g244"
             style="fill:#ffffff;fill-opacity:1">
            <path
               inkscape:connector-curvature="0"
               id="path246"
               style="fill:#ffffff;fill-opacity:1;fill-rule:nonzero;stroke:none"
               d="m 0,0 h 0.624 c 0.416,0 0.772,-0.285 1.083,-0.873 0.344,-0.648 0.52,-1.29 0.52,-1.908 v -0.545 l -21.116,-26.023 v 26.568 c 0,0.586 0.158,1.202 0.468,1.83 0.275,0.567 0.598,0.878 0.987,0.951 h 0.77 v 1.255 h -8.974 V 0 h 0.626 c 0.416,0 0.77,-0.285 1.081,-0.873 0.345,-0.646 0.52,-1.288 0.52,-1.908 v -31.863 c 0,-0.664 -0.177,-1.348 -0.524,-2.035 -0.312,-0.619 -0.664,-0.92 -1.077,-0.92 h -0.626 v -1.261 h 8.974 v 1.261 l -0.623,-0.001 c -0.415,0 -0.766,0.31 -1.075,0.947 -0.351,0.71 -0.527,1.386 -0.527,2.009 v 0.539 L 2.227,-8.08 v -26.564 c 0,-0.662 -0.176,-1.347 -0.523,-2.034 -0.313,-0.62 -0.667,-0.921 -1.08,-0.921 H 0 v -1.261 h 8.972 v 1.261 L 8.351,-37.6 c -0.415,0 -0.768,0.31 -1.079,0.947 -0.347,0.705 -0.522,1.381 -0.522,2.009 v 31.863 c 0,0.584 0.174,1.219 0.518,1.882 C 7.581,-0.294 7.935,0 8.351,0 H 8.972 V 1.255 H 0 Z" />
          </g>
          <g
             transform="translate(247.6006,365.0277)"
             id="g248"
             style="fill:#ffffff;fill-opacity:1">
            <path
               inkscape:connector-curvature="0"
               id="path250"
               style="fill:#ffffff;fill-opacity:1;fill-rule:nonzero;stroke:none"
               d="m 0,0 c 0.018,0.111 -0.013,0.224 -0.084,0.31 -0.126,0.154 -0.327,0.172 -0.487,0.172 -0.309,0 -0.721,-0.02 -0.968,-0.034 -0.103,-0.005 -0.179,-0.01 -0.207,-0.01 -0.061,0 -0.184,0.006 -0.341,0.013 -0.311,0.014 -0.738,0.031 -1.134,0.031 -0.166,0 -0.609,0 -0.675,-0.395 L -3.9,0.031 c 0,-0.042 0.014,-0.421 0.499,-0.422 0.124,0 0.29,0.001 0.416,-0.026 L -3.192,-1.06 c -0.345,-1.038 -1.7,-4.554 -2.598,-6.813 l -3.056,6.434 c -0.245,0.513 -0.345,0.91 -0.349,1.003 0.043,0.019 0.211,0.046 0.438,0.045 0.334,0 0.484,0.222 0.484,0.439 0,0.434 -0.538,0.434 -0.741,0.434 -0.385,0 -0.819,-0.018 -1.105,-0.032 -0.139,-0.006 -0.247,-0.012 -0.295,-0.012 -0.058,0 -0.189,0.005 -0.364,0.012 -0.362,0.014 -0.909,0.032 -1.396,0.032 -0.217,0 -0.725,0 -0.725,-0.434 0,-0.254 0.191,-0.438 0.453,-0.439 0.076,0 0.304,0.001 0.482,-0.045 0.384,-0.11 0.474,-0.185 0.876,-0.982 l 4.403,-8.59 c -0.387,-0.977 -0.65,-1.413 -1.109,-1.413 -0.374,0 -0.69,0.525 -0.69,1.148 0,0.198 0,0.615 -0.439,0.615 -0.13,0 -0.36,-0.054 -0.436,-0.431 -0.079,-0.499 -0.11,-1.39 -0.095,-1.917 0,-0.287 0.126,-0.502 0.394,-0.662 0.353,-0.203 0.929,-0.298 1.205,-0.298 0.919,0 1.756,0.806 2.355,2.267 l 3.688,8.934 c 0.423,1.035 0.649,1.181 0.757,1.247 0.203,0.127 0.459,0.128 0.543,0.127 0.419,0 0.498,0.274 0.512,0.391" />
          </g>
          <g
             transform="translate(220.1147,356.9213)"
             id="g252"
             style="fill:#ffffff;fill-opacity:1">
            <path
               inkscape:connector-curvature="0"
               id="path254"
               style="fill:#ffffff;fill-opacity:1;fill-rule:nonzero;stroke:none"
               d="m 0,0 c -0.388,0 -0.456,-0.372 -0.479,-0.5 -0.043,-0.25 -0.223,-0.824 -0.466,-1.078 -0.527,-0.536 -1.334,-0.647 -2.38,-0.647 -2.506,0 -5.099,1.921 -5.099,5.135 0,3.178 1.424,4.658 4.482,4.658 0.993,0 3.308,-0.199 3.308,-2.044 0,-0.427 0.154,-0.646 0.454,-0.646 0.485,0 0.485,0.534 0.485,1.274 0,0.587 0.05,1.112 0.08,1.425 0.016,0.155 0.026,0.268 0.026,0.322 0,0.302 -0.208,0.496 -0.531,0.496 -0.178,0 -0.476,0.051 -0.852,0.116 -0.714,0.122 -1.693,0.287 -2.865,0.287 -2.226,0 -4.019,-0.71 -5.184,-2.057 -0.907,-1.045 -1.425,-2.483 -1.425,-3.95 0,-3.986 2.662,-6.365 7.121,-6.365 0.924,0 2.152,0.095 2.845,0.372 0.359,0.157 0.456,0.266 0.576,0.642 0.154,0.524 0.345,1.856 0.344,2.006 C 0.44,-0.117 0.164,0 0,0" />
          </g>
          <g
             transform="translate(232.4922,365.6156)"
             id="g256"
             style="fill:#ffffff;fill-opacity:1">
            <path
               inkscape:connector-curvature="0"
               id="path258"
               style="fill:#ffffff;fill-opacity:1;fill-rule:nonzero;stroke:none"
               d="M 0,0 C -0.044,0 -0.116,-0.011 -0.223,-0.033 -0.429,-0.072 -0.81,-0.149 -1.489,-0.149 h -5.644 c -0.157,0 -0.714,0.026 -1.164,0.073 -0.203,0.015 -0.318,0.066 -0.411,0.107 -0.078,0.034 -0.167,0.073 -0.275,0.073 -0.298,0 -0.397,-0.295 -0.462,-0.492 L -9.459,-0.431 C -9.462,-0.444 -9.8,-1.845 -9.8,-2.065 c 0,-0.306 0.206,-0.465 0.41,-0.465 0.149,0 0.349,0.064 0.457,0.35 0.042,0.094 0.079,0.183 0.227,0.409 0.146,0.217 0.362,0.315 1.262,0.332 l 1.888,0.025 v -5.983 c 0,-1.393 0,-2.593 -0.073,-3.196 -0.018,-0.143 -0.071,-0.522 -0.179,-0.543 -0.142,-0.031 -0.287,-0.052 -0.376,-0.052 -0.295,0 -0.455,-0.217 -0.455,-0.421 0,-0.105 0.04,-0.451 0.575,-0.451 0.327,0 0.896,0.022 1.236,0.036 0.126,0.005 0.215,0.008 0.238,0.009 0.019,-10e-4 0.077,-0.004 0.167,-0.006 0.338,-0.012 1.042,-0.039 1.685,-0.039 0.558,0 0.574,0.405 0.574,0.451 0,0.204 -0.158,0.421 -0.454,0.421 -0.107,0 -0.417,0.027 -0.633,0.058 -0.162,0.02 -0.251,0.054 -0.3,0.531 -0.072,0.609 -0.072,1.809 -0.072,3.202 v 5.983 l 1.554,-0.025 c 1.46,-0.032 1.508,-0.384 1.526,-0.52 l 0.015,-0.16 c 0.01,-0.138 0.039,-0.561 0.453,-0.561 0.212,0 0.44,0.165 0.44,0.526 0,0.059 0.006,0.241 0.013,0.466 0.015,0.383 0.032,0.896 0.032,1.177 C 0.41,-0.037 0.097,0 0,0" />
          </g>
          <g
             transform="translate(253.1968,354.8451)"
             id="g260"
             style="fill:#ffffff;fill-opacity:1">
            <path
               inkscape:connector-curvature="0"
               id="path262"
               style="fill:#ffffff;fill-opacity:1;fill-rule:nonzero;stroke:none"
               d="m 0,0 c -0.621,0 -1.718,0.009 -2.59,0.054 0.029,0.188 0.083,0.394 0.166,0.627 L 0.051,7.715 3.069,0.059 C 2.01,0.022 0.894,0 0,0 M 6.727,0.211 C 6.663,0.211 6.6,0.197 6.493,0.175 6.333,0.142 6.092,0.09 5.839,0.09 5.375,0.09 4.988,0.473 4.69,1.228 l -3.673,9.055 c -0.169,0.398 -0.315,0.741 -0.671,0.741 -0.333,0 -0.447,-0.281 -0.657,-0.794 L -3.999,0.908 C -4.251,0.262 -4.477,0.075 -5.012,0.075 c -0.209,0 -0.356,0.06 -0.473,0.107 -0.097,0.038 -0.188,0.073 -0.293,0.073 -0.252,0 -0.38,-0.187 -0.38,-0.556 0,-0.16 0.241,-1.577 0.333,-1.897 0.112,-0.335 0.363,-0.363 0.438,-0.363 0.196,0 0.424,0.126 0.424,0.482 0,0.359 0,0.468 0.05,0.668 0.015,0.053 0.054,0.211 0.881,0.211 h 8.894 c 0.973,0 0.973,-0.255 0.973,-0.609 v -0.166 c 0,-0.483 0.239,-0.586 0.441,-0.586 0.249,0 0.409,0.155 0.478,0.468 0.012,0.056 0.056,0.279 0.11,0.548 0.257,1.262 0.257,1.278 0.257,1.334 0,0.29 -0.204,0.422 -0.394,0.422" />
          </g>
          <g
             transform="translate(346.3926,436.2972)"
             id="g264"
             style="fill:#ffffff;fill-opacity:1">
            <path
               inkscape:connector-curvature="0"
               id="path266"
               style="fill:#ffffff;fill-opacity:1;fill-rule:nonzero;stroke:none"
               d="m 0,0 h 1.248 v 0.33 c 0,0.998 0.312,1.927 0.93,2.761 0.6,0.813 1.414,1.209 2.486,1.209 h 6.456 v -32.999 c 0,-0.661 -0.177,-1.345 -0.523,-2.031 -0.306,-0.61 -0.669,-0.918 -1.079,-0.918 h -0.62 v -1.26 h 8.97 v 1.26 h -0.624 c -0.151,0 -0.611,0 -1.047,0.912 -0.327,0.685 -0.493,1.371 -0.493,2.039 V 4.3 h 6.575 c 1.069,0 1.882,-0.396 2.483,-1.209 C 25.38,2.254 25.693,1.327 25.693,0.33 V 0 h 1.244 V 7.169 H 0 Z" />
          </g>
          <g
             transform="translate(472.4297,415.5892)"
             id="g268"
             style="fill:#ffffff;fill-opacity:1">
            <path
               inkscape:connector-curvature="0"
               id="path270"
               style="fill:#ffffff;fill-opacity:1;fill-rule:nonzero;stroke:none"
               d="M 0,0 6.755,19.1 13.607,0 Z m 24.018,-10.94 c -1.123,0 -2.042,1.086 -2.734,3.242 L 7.868,29.229 -5.844,-8.047 c -0.336,-0.835 -0.741,-1.55 -1.209,-2.122 -0.418,-0.513 -0.814,-0.771 -1.179,-0.771 h -0.622 v -1.26 h 7.159 v 1.26 h -0.624 c -0.251,0 -0.458,0.112 -0.648,0.346 -0.209,0.265 -0.309,0.589 -0.309,0.992 0,0.273 0.05,0.524 0.158,0.788 l 2.181,6.169 h 15.494 l 2.297,-6.404 c 0.108,-0.327 0.161,-0.633 0.161,-0.912 0,-0.686 -0.321,-0.979 -1.075,-0.979 h -0.621 v -1.26 h 9.322 v 1.26 z" />
          </g>
          <g
             transform="translate(147.8027,486.4696)"
             id="g272"
             style="fill:#ffffff;fill-opacity:1">
            <path
               inkscape:connector-curvature="0"
               id="path274"
               style="fill:#ffffff;fill-opacity:1;fill-rule:nonzero;stroke:none"
               d="m 0,0 h 301.337 v -28.014 l 2.666,1.467 V 0 2.668 H 301.337 0 -2.667 V 0 -26.547 L 0,-28.014 Z" />
          </g>
          <g
             transform="translate(147.8027,389.0873)"
             id="g276"
             style="fill:#ffffff;fill-opacity:1">
            <path
               inkscape:connector-curvature="0"
               id="path278"
               style="fill:#ffffff;fill-opacity:1;fill-rule:nonzero;stroke:none"
               d="m 0,0 -2.667,-1.469 v -26.546 -2.668 H 0 53.001 v 2.668 H 0 Z" />
          </g>
          <g
             transform="translate(244.4263,404.6498)"
             id="g280"
             style="fill:#ffffff;fill-opacity:1">
            <path
               inkscape:connector-curvature="0"
               id="path282"
               style="fill:#ffffff;fill-opacity:1;fill-rule:nonzero;stroke:none"
               d="m 0,0 h -0.332 v -1.261 h 9.03 V -0.02 L 8.384,-0.001 C 7.791,0.031 7.271,0.24 6.795,0.636 6.316,1.032 5.964,1.511 5.752,2.048 L -7.436,38.816 h -5.362 v -1.253 h 0.332 c 0.289,0 0.553,-0.141 0.801,-0.427 0.26,-0.301 0.388,-0.679 0.388,-1.157 0,-0.121 -0.036,-0.448 -0.273,-1.261 L -22.605,3.794 c -0.52,-1.253 -1.23,-2.21 -2.111,-2.848 C -25.587,0.316 -26.311,0 -26.865,0 h -0.331 v -1.261 h 2.146 c 2.487,0 4.246,1.481 5.229,4.397 L -9.658,31.589 1.027,1.543 C 1.061,1.407 1.125,1.134 1.131,1.098 1.131,0.759 1.021,0.506 0.784,0.307 0.531,0.1 0.273,0 0,0" />
          </g>
          <g
             transform="translate(150.5752,407.598)"
             id="g284"
             style="fill:#ffffff;fill-opacity:1">
            <path
               inkscape:connector-curvature="0"
               id="path286"
               style="fill:#ffffff;fill-opacity:1;fill-rule:nonzero;stroke:none"
               d="m 0,0 c 0,-0.656 -0.175,-1.34 -0.52,-2.029 -0.312,-0.62 -0.665,-0.92 -1.079,-0.92 h -0.623 v -1.26 h 8.968 v 1.26 h -0.62 c -0.151,0 -0.612,0 -1.048,0.912 -0.328,0.685 -0.493,1.371 -0.493,2.039 v 32.997 h 6.573 c 1.07,0 1.883,-0.396 2.484,-1.208 0.618,-0.837 0.933,-1.764 0.933,-2.762 v -0.33 h 1.244 v 7.169 H -11.12 v -7.169 h 1.249 v 0.33 c 0,0.999 0.312,1.928 0.929,2.762 0.602,0.812 1.414,1.208 2.484,1.208 H 0 Z" />
          </g>
          <g
             transform="translate(129.5786,411.7582)"
             id="g288"
             style="fill:#ffffff;fill-opacity:1">
            <path
               inkscape:connector-curvature="0"
               id="path290"
               style="fill:#ffffff;fill-opacity:1;fill-rule:nonzero;stroke:none"
               d="M 0,0 C -0.375,-1.223 -0.952,-2.277 -1.714,-3.131 -2.48,-3.989 -3.346,-4.624 -4.29,-5.019 -5.248,-5.422 -6.154,-5.718 -6.98,-5.897 -7.791,-6.07 -8.625,-6.158 -9.458,-6.158 c -4.679,0 -8.74,1.883 -12.069,5.595 -3.344,3.724 -5.039,8 -5.039,12.709 0,2.102 0.348,4.186 1.036,6.195 0.687,2.006 1.704,3.873 3.022,5.548 1.309,1.665 3.071,3.028 5.234,4.056 2.17,1.028 4.643,1.551 7.349,1.55 5.053,0 7.876,-1.925 8.628,-5.885 l 0.051,-0.268 h 1.192 v 7.292 h -0.331 c -0.852,0 -1.839,0.194 -2.949,0.582 -2.469,0.724 -4.608,1.093 -6.356,1.092 -3.457,0 -6.632,-0.612 -9.435,-1.819 -2.806,-1.211 -5.1,-2.828 -6.82,-4.807 -1.715,-1.968 -3.034,-4.183 -3.924,-6.583 -0.888,-2.393 -1.338,-4.913 -1.338,-7.49 0,-2.536 0.45,-5.038 1.338,-7.432 0.889,-2.395 2.188,-4.609 3.863,-6.575 1.688,-1.988 3.912,-3.595 6.615,-4.782 2.707,-1.185 5.755,-1.788 9.057,-1.788 1.966,0 4.435,0.386 7.343,1.145 1.912,0.509 3.223,0.766 3.896,0.766 h 0.329 v 7.29 H 0.072 Z" />
          </g>
          <g
             transform="translate(454.1797,406.4515)"
             id="g292"
             style="fill:#ffffff;fill-opacity:1">
            <path
               inkscape:connector-curvature="0"
               id="path294"
               style="fill:#ffffff;fill-opacity:1;fill-rule:nonzero;stroke:none"
               d="m 0,0 c -1.181,1.243 -2.105,2.617 -2.754,4.1 l -4.625,9.557 c -1.86,3.718 -5.015,5.773 -9.382,6.117 l 13.362,13.633 c 1.491,1.525 2.777,2.315 3.813,2.354 l 0.319,0.011 v 1.243 H -6.25 v -1.254 h 0.33 c 0.095,0 0.138,0 0.138,-0.211 0,-0.351 -0.123,-0.647 -0.374,-0.903 L -19.168,21.426 V 32.98 c 0,0.583 0.18,1.198 0.548,1.876 0.332,0.609 0.697,0.905 1.114,0.905 h 0.623 v 1.254 h -8.971 v -1.254 h 0.621 c 0.416,0 0.758,-0.283 1.053,-0.865 0.325,-0.644 0.489,-1.288 0.489,-1.916 L -23.692,1.148 c 0,-0.669 -0.175,-1.353 -0.522,-2.034 -0.309,-0.617 -0.66,-0.917 -1.075,-0.917 h -0.623 v -1.26 h 8.97 v 1.26 h -0.717 c -0.416,0.066 -0.767,0.393 -1.042,0.97 -0.311,0.658 -0.467,1.324 -0.467,1.982 v 16.01 c 3.381,-0.269 5.686,-1.726 7.042,-4.45 l 4.742,-9.616 c 0.905,-1.853 1.962,-3.351 3.141,-4.456 1.208,-1.128 2.888,-1.7 4.998,-1.7 h 3.256 v 1.26 H 3.68 C 2.372,-1.803 1.133,-1.196 0,0" />
          </g>
          <g
             transform="translate(343.3242,356.9213)"
             id="g296"
             style="fill:#ffffff;fill-opacity:1">
            <path
               inkscape:connector-curvature="0"
               id="path298"
               style="fill:#ffffff;fill-opacity:1;fill-rule:nonzero;stroke:none"
               d="m 0,0 c -0.389,0 -0.457,-0.373 -0.479,-0.5 -0.042,-0.25 -0.225,-0.825 -0.468,-1.078 -0.527,-0.536 -1.332,-0.647 -2.378,-0.647 -2.507,0 -5.1,1.921 -5.1,5.135 0,3.178 1.424,4.658 4.483,4.658 0.994,0 3.306,-0.199 3.306,-2.044 0,-0.427 0.155,-0.646 0.455,-0.646 0.486,0 0.486,0.534 0.486,1.274 0,0.587 0.049,1.112 0.079,1.425 0.016,0.155 0.025,0.268 0.025,0.322 0,0.302 -0.207,0.496 -0.529,0.496 -0.18,0 -0.477,0.051 -0.853,0.116 -0.714,0.122 -1.692,0.287 -2.864,0.287 -2.226,0 -4.019,-0.71 -5.185,-2.057 -0.907,-1.045 -1.424,-2.483 -1.424,-3.95 0,-3.986 2.662,-6.365 7.121,-6.365 0.922,0 2.15,0.095 2.845,0.372 0.358,0.159 0.456,0.266 0.576,0.642 C 0.25,-2.035 0.44,-0.704 0.44,-0.554 0.44,-0.117 0.163,0 0,0" />
          </g>
          <g
             transform="translate(324.1328,359.1635)"
             id="g300"
             style="fill:#ffffff;fill-opacity:1">
            <path
               inkscape:connector-curvature="0"
               id="path302"
               style="fill:#ffffff;fill-opacity:1;fill-rule:nonzero;stroke:none"
               d="M 0,0 1.02,3.103 2.121,0 Z m 6.994,-4.735 c -0.126,0 -0.315,0.012 -0.511,0.076 C 6.322,-4.612 5.941,-4.505 5.408,-3.196 4.756,-1.582 3.371,2.006 2.545,4.151 2.209,5.017 1.967,5.646 1.903,5.807 1.732,6.243 1.61,6.556 1.26,6.556 0.909,6.556 0.793,6.238 0.615,5.757 l -3.417,-9.278 c -0.301,-0.831 -0.552,-1.13 -0.99,-1.187 -0.111,-0.013 -0.308,-0.027 -0.395,-0.027 -0.268,0 -0.469,-0.182 -0.469,-0.422 0,-0.168 0.081,-0.45 0.619,-0.45 0.483,0 1.016,0.02 1.368,0.033 0.16,0.007 0.28,0.012 0.333,0.012 0.063,0 0.203,-0.009 0.368,-0.017 0.262,-0.013 0.585,-0.028 0.806,-0.028 0.544,0 0.559,0.404 0.559,0.45 0,0.156 -0.102,0.422 -0.484,0.422 h -0.151 c -0.106,0 -0.238,0.047 -0.238,0.101 0,0.23 0.069,0.553 0.194,0.895 l 0.866,2.537 H 2.56 L 3.918,-4.76 c 0,-0.002 10e-4,-0.002 10e-4,-0.005 -0.132,-0.076 -0.225,-0.218 -0.225,-0.377 0,-0.397 0.421,-0.418 0.7,-0.432 l 0.077,-0.005 c 0.673,-0.018 1.515,-0.028 2.373,-0.028 0.589,0 0.635,0.345 0.634,0.45 0,0.043 -0.013,0.422 -0.484,0.422" />
          </g>
          <g
             transform="translate(386.8184,354.4281)"
             id="g304"
             style="fill:#ffffff;fill-opacity:1">
            <path
               inkscape:connector-curvature="0"
               id="path306"
               style="fill:#ffffff;fill-opacity:1;fill-rule:nonzero;stroke:none"
               d="m 0,0 c -0.106,0 -0.418,0.026 -0.633,0.058 -0.163,0.019 -0.25,0.053 -0.299,0.531 -0.074,0.608 -0.074,1.808 -0.074,3.201 v 2.629 c 0,2.32 0,2.738 0.029,3.208 0.029,0.497 0.131,0.516 0.279,0.542 0.167,0.027 0.243,0.041 0.321,0.04 0.255,0 0.454,0.187 0.454,0.422 0,0.106 -0.041,0.451 -0.574,0.451 -0.326,0 -0.896,-0.02 -1.235,-0.035 -0.125,-0.006 -0.215,-0.008 -0.239,-0.009 -0.024,10e-4 -0.107,0.003 -0.226,0.009 -0.325,0.013 -0.931,0.035 -1.294,0.035 -0.533,0 -0.575,-0.345 -0.575,-0.451 0,-0.235 0.2,-0.421 0.455,-0.422 0.096,0 0.257,-0.014 0.392,-0.05 0.089,-0.02 0.222,-0.052 0.252,-0.534 0.029,-0.468 0.029,-0.886 0.029,-3.206 V 3.79 c 0,-1.393 0,-2.593 -0.072,-3.195 C -3.029,0.451 -3.082,0.072 -3.188,0.052 -3.332,0.021 -3.477,0 -3.566,0 c -0.296,0 -0.455,-0.218 -0.455,-0.422 0,-0.104 0.042,-0.45 0.574,-0.45 0.329,0 0.897,0.021 1.237,0.035 0.126,0.006 0.215,0.009 0.238,0.01 0.019,-0.001 0.078,-0.004 0.168,-0.006 0.338,-0.013 1.041,-0.039 1.683,-0.039 0.558,0 0.575,0.404 0.575,0.45 C 0.454,-0.218 0.294,0 0,0" />
          </g>
          <g
             transform="translate(378.4219,354.6517)"
             id="g308"
             style="fill:#ffffff;fill-opacity:1">
            <path
               inkscape:connector-curvature="0"
               id="path310"
               style="fill:#ffffff;fill-opacity:1;fill-rule:nonzero;stroke:none"
               d="M 0,0 C -0.361,0 -0.885,0.05 -1.181,0.191 -1.442,0.316 -1.458,0.324 -1.5,1.018 L -1.503,1.08 C -1.519,1.292 -1.519,3.239 -1.519,4.284 V 4.64 c -0.002,0.086 0.003,0.122 -0.002,0.125 0.029,0.013 0.139,0.054 0.527,0.053 2.195,0 2.781,-1.903 2.781,-3.028 C 1.787,0.088 0.298,0 0,0 m -0.348,5.975 h -0.48 c -0.326,0 -0.548,0.016 -0.69,0.032 l 0.015,3.396 c 0.029,0.497 0.131,0.516 0.279,0.544 0.167,0.026 0.242,0.039 0.321,0.038 0.255,0 0.454,0.188 0.454,0.422 0,0.107 -0.041,0.451 -0.574,0.451 -0.329,0 -0.898,-0.02 -1.238,-0.035 -0.125,-0.006 -0.215,-0.008 -0.237,-0.009 -0.024,10e-4 -0.108,0.003 -0.228,0.009 -0.325,0.013 -0.929,0.035 -1.294,0.035 -0.533,0 -0.575,-0.344 -0.575,-0.451 0,-0.234 0.2,-0.421 0.455,-0.422 0.097,0 0.257,-0.013 0.394,-0.049 C -3.66,9.917 -3.434,9.865 -3.42,9.412 L -3.418,9.359 C -3.391,8.477 -3.39,8.477 -3.39,6.195 L -3.391,3.566 c 0,-1.392 10e-4,-2.592 -0.071,-3.195 -0.02,-0.143 -0.072,-0.522 -0.179,-0.543 -0.143,-0.031 -0.289,-0.052 -0.379,-0.052 -0.295,0 -0.455,-0.217 -0.455,-0.422 0,-0.104 0.043,-0.45 0.576,-0.45 0.329,0 0.896,0.022 1.237,0.035 0.125,0.006 0.215,0.009 0.238,0.01 0.048,-0.001 0.279,-0.012 0.568,-0.028 0.538,-0.028 1.208,-0.064 1.434,-0.064 2.738,0 4.172,1.807 4.172,3.59 0,2.076 -1.685,3.528 -4.098,3.528" />
          </g>
          <g
             transform="translate(353.0684,354.5765)"
             id="g312"
             style="fill:#ffffff;fill-opacity:1">
            <path
               inkscape:connector-curvature="0"
               id="path314"
               style="fill:#ffffff;fill-opacity:1;fill-rule:nonzero;stroke:none"
               d="m 0,0 c -2.639,0 -4.481,2.216 -4.481,5.39 0,2.87 1.516,4.582 4.059,4.582 2.042,0 4.241,-1.621 4.241,-5.181 C 3.819,0.232 0.638,0 0,0 m -0.317,11.143 c -4.563,0 -6.263,-3.785 -6.263,-6.172 0,-2.987 1.933,-6.2 6.173,-6.2 3.674,0 6.34,2.708 6.34,6.439 0,3.549 -2.512,5.933 -6.25,5.933" />
          </g>
          <g
             transform="translate(370.9658,365.6156)"
             id="g316"
             style="fill:#ffffff;fill-opacity:1">
            <path
               inkscape:connector-curvature="0"
               id="path318"
               style="fill:#ffffff;fill-opacity:1;fill-rule:nonzero;stroke:none"
               d="m 0,0 c -0.043,0 -0.115,-0.011 -0.223,-0.033 -0.206,-0.039 -0.588,-0.116 -1.265,-0.116 h -5.645 c -0.155,0 -0.714,0.026 -1.164,0.073 -0.202,0.015 -0.317,0.066 -0.41,0.107 -0.078,0.034 -0.167,0.073 -0.275,0.073 -0.298,0 -0.397,-0.295 -0.463,-0.492 L -9.457,-0.431 C -9.462,-0.444 -9.8,-1.847 -9.8,-2.065 c 0,-0.306 0.207,-0.465 0.41,-0.465 0.15,0 0.351,0.064 0.459,0.35 0.038,0.094 0.077,0.182 0.225,0.409 0.145,0.217 0.362,0.315 1.262,0.332 l 1.889,0.025 v -5.983 c 0,-1.393 0,-2.593 -0.071,-3.196 -0.021,-0.143 -0.073,-0.522 -0.18,-0.543 -0.144,-0.031 -0.289,-0.052 -0.379,-0.052 -0.294,0 -0.453,-0.217 -0.453,-0.421 0,-0.105 0.041,-0.451 0.574,-0.451 0.329,0 0.897,0.022 1.236,0.036 0.127,0.005 0.216,0.008 0.239,0.009 0.017,-10e-4 0.078,-0.004 0.168,-0.006 0.339,-0.012 1.041,-0.039 1.683,-0.039 0.558,0 0.576,0.405 0.576,0.451 0,0.204 -0.16,0.421 -0.456,0.421 -0.106,0 -0.417,0.027 -0.632,0.058 -0.162,0.02 -0.25,0.054 -0.299,0.531 -0.074,0.609 -0.074,1.809 -0.074,3.202 v 5.983 l 1.555,-0.025 c 1.459,-0.032 1.507,-0.384 1.526,-0.52 l 0.014,-0.16 c 0.009,-0.138 0.04,-0.561 0.455,-0.561 0.21,0 0.439,0.165 0.439,0.526 0,0.059 0.006,0.241 0.014,0.466 0.013,0.383 0.031,0.896 0.031,1.177 C 0.411,-0.037 0.097,0 0,0" />
          </g>
          <g
             transform="translate(315.04,359.5814)"
             id="g320"
             style="fill:#ffffff;fill-opacity:1">
            <path
               inkscape:connector-curvature="0"
               id="path322"
               style="fill:#ffffff;fill-opacity:1;fill-rule:nonzero;stroke:none"
               d="M 0,0 C -0.24,0 -0.677,0 -0.734,-0.38 V 4.776 4.78 c 0.088,0.02 0.239,0.038 0.433,0.038 l 0.162,0.002 c 0.44,0 1.087,-0.068 1.66,-0.65 C 2.192,3.494 2.271,2.666 2.271,2.103 2.271,0.923 1.272,0 0,0 m 0.227,5.929 c -0.415,0 -0.89,-0.015 -1.28,-0.028 -0.261,-0.008 -0.484,-0.016 -0.617,-0.016 -0.034,0 -0.135,0.003 -0.273,0.009 -0.355,0.014 -0.945,0.035 -1.428,0.035 -0.532,0 -0.573,-0.345 -0.573,-0.451 0,-0.235 0.198,-0.421 0.453,-0.422 0.146,0 0.359,-0.017 0.442,-0.036 0.288,-0.061 0.359,-0.119 0.383,-0.548 0.029,-0.468 0.029,-0.886 0.029,-3.206 v -2.629 c 0,-1.393 0,-2.593 -0.072,-3.196 -0.02,-0.143 -0.071,-0.522 -0.179,-0.543 -0.141,-0.031 -0.288,-0.051 -0.378,-0.051 -0.296,0 -0.454,-0.218 -0.454,-0.422 0,-0.105 0.041,-0.45 0.574,-0.45 0.352,0 0.986,0.024 1.292,0.038 0.083,0.003 0.142,0.006 0.154,0.007 0.017,-10e-4 0.078,-0.004 0.168,-0.006 0.338,-0.013 1.041,-0.039 1.683,-0.039 0.56,0 0.575,0.404 0.575,0.45 0,0.204 -0.159,0.422 -0.455,0.422 -0.106,0 -0.418,0.026 -0.632,0.057 -0.162,0.02 -0.25,0.054 -0.299,0.532 -0.074,0.608 -0.074,1.808 -0.074,3.201 v 0.824 c 0.037,-0.203 0.221,-0.351 0.462,-0.362 0.085,-0.013 0.202,-0.017 0.347,-0.017 2.34,0 4.037,1.635 4.037,3.888 0,0.89 -0.462,1.643 -0.858,2.018 -0.25,0.233 -1.011,0.941 -3.027,0.941" />
          </g>
          <g
             transform="translate(309.5547,354.4281)"
             id="g324"
             style="fill:#ffffff;fill-opacity:1">
            <path
               inkscape:connector-curvature="0"
               id="path326"
               style="fill:#ffffff;fill-opacity:1;fill-rule:nonzero;stroke:none"
               d="m 0,0 c -0.085,0 -0.471,0.028 -0.805,0.169 -0.659,0.273 -0.881,0.477 -2.109,1.609 l -0.034,0.031 c -0.53,0.488 -3.088,3.102 -3.909,3.968 0.679,0.703 2.679,2.646 3.085,3.032 l 0.276,0.262 c 0.487,0.469 0.78,0.751 1.256,0.959 0.296,0.132 0.558,0.18 0.705,0.179 0.357,0 0.485,0.227 0.485,0.438 0,0.102 -0.04,0.435 -0.56,0.435 -0.265,0 -0.809,-0.02 -1.17,-0.034 -0.144,-0.005 -0.249,-0.009 -0.275,-0.01 -0.182,0 -0.394,0.012 -0.594,0.024 -0.198,0.009 -0.385,0.02 -0.535,0.02 -0.353,0 -0.514,-0.226 -0.514,-0.435 0,-0.186 0.107,-0.327 0.331,-0.422 V 10.222 C -4.391,10.083 -4.77,9.692 -5.021,9.436 L -5.091,9.363 C -5.377,9.055 -6.3,8.113 -7.115,7.285 -7.483,6.91 -7.826,6.561 -8.092,6.287 v 0.132 c 0,2.32 0,2.738 0.029,3.208 0.028,0.497 0.129,0.516 0.277,0.542 0.167,0.027 0.245,0.041 0.323,0.04 0.255,0 0.453,0.187 0.453,0.422 0,0.106 -0.041,0.451 -0.574,0.451 -0.295,0 -0.769,-0.018 -1.104,-0.031 -0.174,-0.007 -0.31,-0.013 -0.355,-0.013 -0.026,0 -0.102,0.003 -0.212,0.008 -0.329,0.014 -0.942,0.036 -1.445,0.036 -0.533,0 -0.574,-0.345 -0.574,-0.451 0,-0.235 0.198,-0.421 0.454,-0.422 0.146,0 0.36,-0.017 0.443,-0.036 0.287,-0.061 0.356,-0.118 0.382,-0.548 0.03,-0.468 0.03,-0.886 0.03,-3.206 V 3.79 c 0,-1.393 0,-2.593 -0.072,-3.195 -0.021,-0.144 -0.072,-0.523 -0.18,-0.543 C -10.359,0.021 -10.503,0 -10.593,0 c -0.297,0 -0.455,-0.218 -0.456,-0.422 0,-0.104 0.043,-0.45 0.575,-0.45 0.305,0 0.796,0.02 1.12,0.033 0.163,0.006 0.286,0.012 0.325,0.012 0.034,0 0.126,-0.004 0.257,-0.01 0.353,-0.014 0.943,-0.035 1.473,-0.035 0.559,0 0.575,0.404 0.575,0.45 0,0.204 -0.159,0.422 -0.454,0.422 -0.055,0 -0.196,0.007 -0.543,0.058 -0.162,0.019 -0.25,0.053 -0.3,0.531 -0.071,0.608 -0.071,1.808 -0.071,3.201 V 4.446 C -6.921,3.13 -4.553,0.616 -3.97,0.141 l 0.104,-0.082 c 0.604,-0.477 1.041,-0.821 1.895,-0.901 0.347,-0.03 0.649,-0.03 1.068,-0.03 h 0.768 c 0.549,0 0.666,0.244 0.666,0.45 C 0.531,-0.22 0.365,0 0,0" />
          </g>
          <g
             transform="translate(288.251,442.2333)"
             id="g328"
             style="fill:#ffffff;fill-opacity:1">
            <path
               inkscape:connector-curvature="0"
               id="path330"
               style="fill:#ffffff;fill-opacity:1;fill-rule:nonzero;stroke:none"
               d="m 0,0 h 0.623 c 0.417,0 0.772,-0.285 1.085,-0.873 0.344,-0.648 0.519,-1.29 0.519,-1.908 v -0.545 l -21.118,-26.023 v 26.568 c 0,0.586 0.158,1.202 0.47,1.83 0.274,0.567 0.599,0.878 0.985,0.951 h 0.773 v 1.255 h -8.975 V 0 h 0.625 c 0.417,0 0.771,-0.285 1.08,-0.873 0.347,-0.646 0.522,-1.288 0.522,-1.908 v -31.863 c 0,-0.664 -0.177,-1.348 -0.524,-2.035 -0.312,-0.619 -0.665,-0.92 -1.078,-0.92 h -0.625 v -1.261 h 8.975 v 1.261 l -0.624,-0.001 c -0.414,0 -0.766,0.31 -1.076,0.947 -0.35,0.71 -0.528,1.387 -0.528,2.009 v 0.539 L 2.227,-8.08 v -26.564 c 0,-0.662 -0.176,-1.347 -0.524,-2.034 -0.312,-0.62 -0.666,-0.921 -1.08,-0.921 H 0 v -1.261 h 8.972 v 1.261 L 8.351,-37.6 c -0.416,0 -0.769,0.31 -1.081,0.947 -0.345,0.705 -0.52,1.381 -0.52,2.009 v 31.863 c 0,0.584 0.174,1.219 0.518,1.882 C 7.581,-0.294 7.935,0 8.351,0 H 8.972 V 1.255 H 0 Z" />
          </g>
          <g
             transform="translate(449.1396,361.0726)"
             id="g332"
             style="fill:#ffffff;fill-opacity:1">
            <path
               inkscape:connector-curvature="0"
               id="path334"
               style="fill:#ffffff;fill-opacity:1;fill-rule:nonzero;stroke:none"
               d="M 0,0 H -53.002 V -2.668 H 0 2.666 V 0 26.546 L 0,28.015 Z" />
          </g>
          <g
             transform="translate(390.1836,405.5941)"
             id="g336"
             style="fill:#ffffff;fill-opacity:1">
            <path
               inkscape:connector-curvature="0"
               id="path338"
               style="fill:#ffffff;fill-opacity:1;fill-rule:nonzero;stroke:none"
               d="M 0,0 C -0.351,0.709 -0.526,1.384 -0.526,2.007 V 2.544 L 20.586,28.546 V 2.006 c 0,-0.661 -0.174,-1.345 -0.522,-2.031 -0.313,-0.621 -0.667,-0.92 -1.08,-0.92 h -0.623 v -1.26 h 8.971 v 1.26 H 26.71 c -0.416,0 -0.768,0.308 -1.08,0.945 -0.345,0.703 -0.522,1.379 -0.522,2.007 v 31.831 c 0,0.585 0.175,1.219 0.52,1.881 0.311,0.605 0.666,0.899 1.082,0.899 h 0.622 v 1.254 h -8.971 v -1.254 h 0.623 c 0.418,0 0.771,-0.285 1.082,-0.872 0.346,-0.647 0.52,-1.289 0.52,-1.908 V 33.295 L -0.526,7.298 v 26.54 c 0,0.588 0.156,1.203 0.466,1.829 0.276,0.567 0.599,0.879 0.989,0.951 h 0.769 v 1.254 h -8.973 v -1.254 h 0.627 c 0.416,0 0.77,-0.285 1.081,-0.872 0.343,-0.646 0.518,-1.287 0.518,-1.908 V 2.006 c 0,-0.663 -0.176,-1.347 -0.523,-2.033 -0.311,-0.619 -0.664,-0.918 -1.076,-0.918 h -0.627 v -1.26 h 8.973 v 1.26 H 1.076 C 0.661,-0.945 0.309,-0.637 0,0" />
          </g>
          <g
             transform="translate(317.124,404.5785)"
             id="g340"
             style="fill:#ffffff;fill-opacity:1">
            <path
               inkscape:connector-curvature="0"
               id="path342"
               style="fill:#ffffff;fill-opacity:1;fill-rule:nonzero;stroke:none"
               d="m 0,0 c 2.708,-1.186 5.755,-1.788 9.058,-1.788 1.964,0 4.434,0.386 7.342,1.144 1.913,0.509 3.224,0.767 3.893,0.767 h 0.332 v 7.29 H 19.466 L 19.394,7.18 C 19.018,5.958 18.44,4.905 17.678,4.049 16.912,3.191 16.047,2.556 15.103,2.161 14.145,1.757 13.237,1.461 12.411,1.282 11.586,1.106 10.774,1.021 9.935,1.021 c -4.679,0 -8.741,1.883 -12.073,5.595 -3.342,3.72 -5.036,7.998 -5.036,12.71 0,2.1 0.349,4.183 1.035,6.195 0.687,2.003 1.702,3.871 3.021,5.548 1.308,1.664 3.071,3.028 5.236,4.056 2.169,1.028 4.644,1.55 7.349,1.549 5.053,0 7.875,-1.924 8.63,-5.884 l 0.051,-0.268 h 1.189 v 7.292 h -0.329 c -0.85,0 -1.839,0.194 -2.951,0.582 -2.47,0.724 -4.609,1.093 -6.357,1.091 -3.459,0 -6.634,-0.611 -9.434,-1.818 -2.804,-1.212 -5.099,-2.83 -6.821,-4.807 -1.717,-1.975 -3.038,-4.191 -3.922,-6.584 -0.888,-2.395 -1.338,-4.915 -1.338,-7.489 0,-2.534 0.45,-5.034 1.338,-7.432 0.884,-2.39 2.182,-4.603 3.862,-6.576 C -4.933,2.798 -2.706,1.189 0,0" />
          </g>
        </g>
      </g>
    </g>
  </g>
</svg>
